# xmcd
#
# Track frame offsets:
# 150
# 17806
# 32728
# 47685
# 61911
#
# Disc length: 1092 seconds
#
#
# Revision: 0
# Processed by: cddbd v1.5.2PL0 Copyright (c) Steve Scherf et al.
# Submitted via: FreeRIP 2.91 
#
DISCID=38044205
DTITLE=Nanna Amter - The Real Me
DYEAR=2005
DGENRE=Country/Pop
TTITLE0=The real me
TTITLE1=So over
TTITLE2=So far away
TTITLE3=For always and forever
TTITLE4=The meanest bitch
EXTD=
EXTT0=
EXTT1=
EXTT2=
EXTT3=
EXTT4=
PLAYORDER=
